<?xml version="1.0" encoding="UTF-8" standalone="no"?> <!-- Created with Vectornator for iOS (http://vectornator.io/) --><!DOCTYPE svg PUBLIC "-//W3C//DTD SVG 1.1//EN" "http://www.w3.org/Graphics/SVG/1.1/DTD/svg11.dtd">
<svg height="100%" style="fill-rule:nonzero;clip-rule:evenodd;stroke-linecap:round;stroke-linejoin:round;" xmlns:xlink="http://www.w3.org/1999/xlink" xmlns="http://www.w3.org/2000/svg" xml:space="preserve" width="100%" xmlns:vectornator="http://vectornator.io" version="1.1" viewBox="0 0 3000 1000">
<metadata>
<vectornator:setting key="DimensionsVisible" value="1"/>
<vectornator:setting key="PencilOnly" value="0"/>
<vectornator:setting key="SnapToPoints" value="0"/>
<vectornator:setting key="OutlineMode" value="0"/>
<vectornator:setting key="CMYKEnabledKey" value="0"/>
<vectornator:setting key="RulersVisible" value="1"/>
<vectornator:setting key="SnapToEdges" value="0"/>
<vectornator:setting key="GuidesVisible" value="1"/>
<vectornator:setting key="DisplayWhiteBackground" value="1"/>
<vectornator:setting key="doHistoryDisabled" value="0"/>
<vectornator:setting key="SnapToGuides" value="1"/>
<vectornator:setting key="TimeLapseWatermarkDisabled" value="0"/>
<vectornator:setting key="Units" value="Pixels"/>
<vectornator:setting key="DynamicGuides" value="0"/>
<vectornator:setting key="IsolateActiveLayer" value="0"/>
<vectornator:setting key="SnapToGrid" value="0"/>
</metadata>
<defs/>
<g id="Layer 1" vectornator:layerName="Layer 1">
<path d="M-86.1421-80.2778L4243.69-80.2778L4243.69+4717.47L-86.1421+4717.47L-86.1421-80.2778Z" opacity="0"/>
<g opacity="1">
<path d="M569.927+220.223L786.887+220.223L786.887+106.033L444.318+106.033L444.318+840.947C444.318+840.947+544.093+831.968+629.484+826.269C714.875+820.57+785.881+818.149+785.881+818.149L786.887+712.83C786.887+712.83+737.579+712.744+683.339+716.226C629.099+719.708+569.927+726.757+569.927+726.757L569.927+519.382L742.353+519.382L742.353+405.193L569.927+405.193L569.927+220.223Z" opacity="1" fill="#e5a00d"/>
<path d="M1189.62+802.479C1189.62+802.479+1231.63+802.609+1273.11+801.747C1314.59+800.886+1355.55+799.034+1355.55+799.034L1444.62+106.033L1335+106.033L1271.05+623.191L1268.77+623.191L1207.11+106.033L1086.06+106.033L1026.69+630.033L1024.4+630.033L958.172+106.033L835.989+106.033L927.397+810.602C927.397+810.602+969.429+807.949+1012.19+806.388C1054.96+804.828+1098.45+804.36+1098.45+804.36L1142.02+479.434L1144.3+479.434L1189.62+802.479Z" opacity="1" fill="#e5a00d"/>
<path d="M1633.03+220.223L1839.72+220.223L1839.72+106.033L1507.43+106.033L1507.43+800.246L1633.03+800.246L1633.03+505.371L1795.18+505.371L1795.18+391.181L1633.03+391.181L1633.03+220.223Z" opacity="1" fill="#e5a00d"/>
<path d="M1900.24+805.024C1900.24+805.024+2000.57+807.189+2083.65+811.073C2166.72+814.957+2232.53+820.56+2232.53+820.56L2232.53+706.37L2025.85+690.834L2025.85+106.033L1900.24+106.033L1900.24+805.024Z" opacity="1" fill="#e5a00d"/>
<path d="M2287.34+823.147L2412.95+831.119L2412.95+106.033L2287.34+106.033L2287.34+823.147Z" opacity="1" fill="#e5a00d"/>
<path d="M2806.91+106.033L2706.74+344.975L2615.07+106.033L2484.89+106.033L2616.21+460.135L2475.76+835.883L2588.48+846.958L2706.09+563.755L2790.2+870.529L2924.04+895.4L2792.06+460.135L2923.38+106.033L2806.91+106.033Z" opacity="1" fill="#e5a00d"/>
<path d="M245.745+106.072L245.745+677.3C245.745+738.503+225.996+762.508+188.731+762.6C187.504+762.328+185.862+762.132+184.697+761.848C143.428+759.977+89.4593+727.991+89.4594+727.991L51.6025+826.739C51.6025+826.739+51.6934+826.833+51.6942+826.833L51.4192+827.586C51.4192+827.586+105.603+874.395+196.614+883.731C252.818+889.497+293.894+869.982+329.434+834.357C374.255+789.428+371.965+677.869+371.965+667.896L371.965+106.072L245.745+106.072Z" opacity="1" fill="#e5a00d"/>
</g>
</g>
</svg>
