<?xml version="1.0" encoding="UTF-8" standalone="no"?> <!-- Created with Vectornator for iOS (http://vectornator.io/) --><!DOCTYPE svg PUBLIC "-//W3C//DTD SVG 1.1//EN" "http://www.w3.org/Graphics/SVG/1.1/DTD/svg11.dtd">
<svg height="100%" style="fill-rule:nonzero;clip-rule:evenodd;stroke-linecap:round;stroke-linejoin:round;" xmlns:xlink="http://www.w3.org/1999/xlink" xmlns="http://www.w3.org/2000/svg" xml:space="preserve" width="100%" xmlns:vectornator="http://vectornator.io" version="1.1" viewBox="0 0 2000 2000">
<metadata>
<vectornator:setting key="DimensionsVisible" value="1"/>
<vectornator:setting key="PencilOnly" value="0"/>
<vectornator:setting key="SnapToPoints" value="0"/>
<vectornator:setting key="OutlineMode" value="0"/>
<vectornator:setting key="CMYKEnabledKey" value="0"/>
<vectornator:setting key="RulersVisible" value="1"/>
<vectornator:setting key="SnapToEdges" value="0"/>
<vectornator:setting key="GuidesVisible" value="1"/>
<vectornator:setting key="DisplayWhiteBackground" value="1"/>
<vectornator:setting key="doHistoryDisabled" value="0"/>
<vectornator:setting key="SnapToGuides" value="1"/>
<vectornator:setting key="TimeLapseWatermarkDisabled" value="0"/>
<vectornator:setting key="Units" value="Pixels"/>
<vectornator:setting key="DynamicGuides" value="0"/>
<vectornator:setting key="IsolateActiveLayer" value="0"/>
<vectornator:setting key="SnapToGrid" value="0"/>
</metadata>
<defs/>
<g id="Layer 1" vectornator:layerName="Layer 1">
<path d="M-86.1421-80.2778L4243.69-80.2778L4243.69+4717.47L-86.1421+4717.47L-86.1421-80.2778Z" opacity="0"/>
<g opacity="1">
<path d="M273.957+650.406C283.38+654.296+292.176+658.885+300.347+664.171C308.518+669.457+315.064+675.817+319.985+683.251C324.906+690.684+327.668+699.533+328.269+709.797C328.871+720.061+326.314+732.115+320.598+745.961C313.929+762.114+304.446+774.179+292.15+782.156C279.854+790.134+264.858+792.383+247.163+788.904L254.097+743.489C259.335+744.976+264.498+744.463+269.587+741.95C274.676+739.437+278.252+735.681+280.316+730.681C282.46+725.489+282.829+720.915+281.424+716.959C280.018+713.003+277.671+709.558+274.38+706.624C271.09+703.69+267.245+701.146+262.845+698.992C258.446+696.838+254.323+694.967+250.477+693.379L119.523+639.315L138.1+594.318L273.957+650.406Z" opacity="1" fill="#0000ff"/>
<path d="M252.752+413.05L356.333+304.418L388.855+335.427L318.868+408.828L348.68+437.253L414.791+367.918L447.313+398.928L381.202+468.263L413.724+499.273L487.587+421.807L520.109+452.817L412.652+565.515L252.752+413.05Z" opacity="1" fill="#0000ff"/>
<path d="M528.878+170.864L579.045+153.612L658.463+276.118L659.053+275.915L656.655+126.922L699.444+112.207L790.114+234.804L790.704+234.601L778.53+85.01L825.155+68.9758L835.919+298.911L794.901+313.017L699.14+184.251L698.549+184.454L702.24+344.882L662.698+358.481L528.878+170.864Z" opacity="1" fill="#0000ff"/>
<path d="M1039.77+68.4809L1186.68+88.2234L1180.7+132.76L1082.04+119.501L1076.05+164.037L1167.29+176.298L1161.3+220.834L1070.07+208.573L1058.59+293.934L1010.35+287.45L1039.77+68.4809Z" opacity="1" fill="#0000ff"/>
<path d="M1382.39+156.944L1424.99+180.501L1339.83+334.523L1418.75+378.164L1397+417.489L1275.48+350.292L1382.39+156.944Z" opacity="1" fill="#0000ff"/>
<path d="M1642.87+341.962L1676.46+377.197L1516.55+529.649L1482.96+494.414L1642.87+341.962Z" opacity="1" fill="#0000ff"/>
<path d="M1728.77+639.504L1795.97+530.228L1820.57+586.227L1768.67+660.494L1857.72+670.797L1881.44+724.796L1756.99+701.412L1682.55+821.366L1657.95+765.367L1717.66+680.171L1615.15+667.94L1591.93+615.084L1728.77+639.504Z" opacity="1" fill="#0000ff"/>
<path d="M336.185+1656.4C334.213+1665.67+334.696+1674.33+337.634+1682.38C340.571+1690.43+345.63+1697.69+352.812+1704.16C357.284+1708.19+362.095+1711.3+367.246+1713.48C372.396+1715.67+377.527+1716.85+382.638+1717.04C387.749+1717.23+392.709+1716.35+397.516+1714.42C402.323+1712.5+406.681+1709.36+410.588+1705.03C415.106+1700.01+417.779+1694.93+418.609+1689.79C419.44+1684.64+419.039+1679.43+417.409+1674.16C415.778+1668.88+413.432+1663.52+410.372+1658.06C407.311+1652.6+404.114+1647.02+400.783+1641.32C397.451+1635.61+394.438+1629.83+391.743+1623.96C389.049+1618.1+387.313+1612.05+386.537+1605.83C385.762+1599.61+386.399+1593.25+388.45+1586.75C390.501+1580.25+394.579+1573.61+400.684+1566.83C406.423+1560.47+412.774+1555.94+419.737+1553.25C426.701+1550.56+433.813+1549.48+441.072+1550.01C448.332+1550.54+455.503+1552.45+462.585+1555.77C469.667+1559.08+476.257+1563.48+482.355+1568.98C490.214+1576.06+496.246+1584.01+500.45+1592.83C504.655+1601.65+506.266+1611.51+505.283+1622.41L486.188+1620.31C487.074+1612.51+486.316+1605.38+483.913+1598.92C481.51+1592.46+477.192+1586.42+470.959+1580.81C466.623+1576.9+461.971+1573.75+457.004+1571.36C452.036+1568.97+447.088+1567.58+442.16+1567.19C437.232+1566.8+432.361+1567.51+427.547+1569.31C422.733+1571.11+418.251+1574.31+414.099+1578.92C407.628+1586.1+404.482+1593.27+404.661+1600.43C404.839+1607.59+406.665+1614.76+410.139+1621.94C413.612+1629.12+417.804+1636.46+422.714+1643.95C427.624+1651.45+431.541+1659.09+434.465+1666.88C437.389+1674.67+438.391+1682.75+437.471+1691.13C436.551+1699.51+432.061+1708.17+424.003+1717.11C418.142+1723.62+411.733+1728.28+404.777+1731.09C397.82+1733.91+390.718+1735.18+383.472+1734.92C376.225+1734.65+369.098+1732.95+362.091+1729.83C355.083+1726.71+348.666+1722.52+342.839+1717.27C333.354+1708.72+326.11+1699.19+321.106+1688.66C316.103+1678.14+314.297+1666.38+315.687+1653.4L336.185+1656.4Z" opacity="1" fill="#0000ff"/>
<path d="M605.572+1682.49L547.362+1650.94L555.185+1636.51L687.481+1708.22L679.658+1722.65L621.448+1691.1L536.96+1846.97L521.085+1838.36L605.572+1682.49Z" opacity="1" fill="#0000ff"/>
<path d="M841.486+1874.68C839.021+1884.78+835.512+1894.15+830.959+1902.8C826.406+1911.46+820.562+1918.67+813.428+1924.43C806.293+1930.2+797.821+1934.14+788.012+1936.26C778.202+1938.37+766.918+1937.87+754.16+1934.75C741.402+1931.64+731.156+1926.88+723.423+1920.49C715.69+1914.1+709.986+1906.69+706.312+1898.29C702.637+1889.88+700.773+1880.79+700.718+1871.01C700.664+1861.24+701.87+1851.3+704.335+1841.2L732.688+1725.04L750.23+1729.33L722.98+1840.96C721.337+1847.69+720.205+1855.02+719.586+1862.94C718.966+1870.87+719.673+1878.55+721.705+1885.99C723.737+1893.44+727.556+1900.09+733.163+1905.97C738.77+1911.84+747.067+1916.12+758.053+1918.8C769.039+1921.49+778.374+1921.51+786.057+1918.88C793.74+1916.25+800.198+1912.1+805.431+1906.43C810.664+1900.76+814.83+1894.27+817.931+1886.95C821.031+1879.63+823.403+1872.61+825.046+1865.87L852.296+1754.24L869.839+1758.52L841.486+1874.68Z" opacity="1" fill="#0000ff"/>
<path d="M934.488+1765.77L994.362+1763.45C1011.13+1762.8+1025.43+1764.3+1037.25+1767.95C1049.07+1771.59+1058.98+1776.46+1066.98+1782.54C1074.97+1788.62+1081.35+1795.44+1086.12+1803.01C1090.88+1810.59+1094.45+1817.89+1096.82+1824.91C1099.19+1831.94+1100.77+1838.31+1101.53+1844.03C1102.3+1849.75+1102.73+1853.8+1102.83+1856.17C1102.92+1858.54+1102.8+1862.6+1102.48+1868.37C1102.15+1874.13+1101.08+1880.61+1099.26+1887.79C1097.44+1894.98+1094.45+1902.54+1090.28+1910.46C1086.12+1918.38+1080.29+1925.68+1072.79+1932.36C1065.29+1939.04+1055.79+1944.65+1044.28+1949.21C1032.78+1953.76+1018.64+1956.36+1001.87+1957.01L941.998+1959.34L934.488+1765.77ZM959.405+1942.23L996.587+1940.79C1009.35+1940.29+1021.22+1938.24+1032.22+1934.62C1043.21+1930.99+1052.68+1925.74+1060.63+1918.86C1068.58+1911.98+1074.72+1903.4+1079.07+1893.1C1083.42+1882.8+1085.32+1870.72+1084.78+1856.87C1084.25+1843.02+1081.41+1831.12+1076.28+1821.19C1071.15+1811.26+1064.35+1803.17+1055.9+1796.93C1047.44+1790.69+1037.59+1786.19+1026.35+1783.43C1015.11+1780.67+1003.11+1779.54+990.351+1780.03L953.169+1781.48L959.405+1942.23Z" opacity="1" fill="#0000ff"/>
<path d="M1166.57+1740.74L1184.03+1736.15L1233.36+1923.47L1215.9+1928.07L1166.57+1740.74Z" opacity="1" fill="#0000ff"/>
<path d="M1295.68+1807.02C1288.72+1793.99+1284.48+1780.85+1282.97+1767.59C1281.47+1754.33+1282.45+1741.65+1285.91+1729.56C1289.37+1717.47+1295.33+1706.27+1303.78+1695.96C1312.23+1685.65+1322.96+1677.01+1335.99+1670.04C1349.02+1663.08+1362.17+1658.94+1375.43+1657.64C1388.7+1656.34+1401.32+1657.6+1413.3+1661.44C1425.28+1665.27+1436.36+1671.49+1446.56+1680.11C1456.75+1688.72+1465.33+1699.55+1472.29+1712.58C1479.26+1725.6+1483.52+1738.79+1485.07+1752.13C1486.62+1765.47+1485.66+1778.18+1482.2+1790.27C1478.73+1802.37+1472.76+1813.53+1464.26+1823.75C1455.77+1833.98+1445.01+1842.58+1431.98+1849.55C1418.96+1856.52+1405.83+1860.69+1392.61+1862.07C1379.39+1863.46+1366.79+1862.23+1354.81+1858.4C1342.83+1854.56+1331.72+1848.3+1321.49+1839.6C1311.25+1830.91+1302.65+1820.05+1295.68+1807.02ZM1311.61+1798.5C1317.28+1809.12+1324.26+1818.11+1332.54+1825.47C1340.82+1832.83+1349.91+1838.21+1359.79+1841.61C1369.68+1845.02+1380.12+1846.26+1391.11+1845.35C1402.1+1844.43+1413.14+1841.01+1424.24+1835.07C1435.34+1829.14+1444.32+1821.85+1451.18+1813.22C1458.05+1804.59+1462.81+1795.21+1465.47+1785.1C1468.13+1774.99+1468.7+1764.45+1467.17+1753.48C1465.65+1742.5+1462.05+1731.71+1456.37+1721.09C1450.69+1710.47+1443.71+1701.49+1435.43+1694.12C1427.15+1686.76+1418.07+1681.38+1408.18+1677.98C1398.3+1674.58+1387.86+1673.33+1376.87+1674.25C1365.88+1675.16+1354.83+1678.59+1343.73+1684.52C1332.64+1690.46+1323.66+1697.74+1316.79+1706.37C1309.93+1715.01+1305.17+1724.38+1302.51+1734.49C1299.85+1744.6+1299.28+1755.14+1300.81+1766.12C1302.33+1777.09+1305.93+1787.89+1311.61+1798.5Z" opacity="1" fill="#0000ff"/>
<path d="M1583.61+1696.96C1592.71+1699.6+1601.39+1699.74+1609.63+1697.4C1617.87+1695.05+1625.47+1690.53+1632.45+1683.83C1636.79+1679.66+1640.24+1675.09+1642.79+1670.11C1645.34+1665.13+1646.9+1660.1+1647.45+1655.02C1648.01+1649.93+1647.5+1644.92+1645.92+1639.99C1644.34+1635.05+1641.53+1630.48+1637.49+1626.27C1632.82+1621.4+1627.95+1618.37+1622.88+1617.17C1617.8+1615.97+1612.58+1615.99+1607.2+1617.24C1601.82+1618.48+1596.3+1620.43+1590.63+1623.09C1584.97+1625.75+1579.17+1628.53+1573.24+1631.44C1567.31+1634.35+1561.32+1636.94+1555.28+1639.2C1549.23+1641.46+1543.08+1642.76+1536.82+1643.08C1530.55+1643.4+1524.25+1642.31+1517.92+1639.79C1511.59+1637.28+1505.26+1632.73+1498.94+1626.15C1493.01+1619.97+1488.95+1613.3+1486.78+1606.16C1484.6+1599.02+1484.04+1591.85+1485.09+1584.65C1486.14+1577.45+1488.57+1570.43+1492.39+1563.61C1496.2+1556.79+1501.07+1550.53+1506.99+1544.85C1514.62+1537.52+1522.99+1532.08+1532.09+1528.53C1541.2+1524.97+1551.15+1524.08+1561.95+1525.85L1558.47+1544.74C1550.76+1543.29+1543.59+1543.53+1536.97+1545.46C1530.35+1547.39+1524.02+1551.26+1517.97+1557.07C1513.75+1561.11+1510.28+1565.52+1507.54+1570.31C1504.79+1575.09+1503.05+1579.92+1502.31+1584.81C1501.56+1589.7+1501.91+1594.6+1503.36+1599.54C1504.81+1604.47+1507.68+1609.17+1511.97+1613.64C1518.67+1620.62+1525.59+1624.28+1532.74+1624.62C1539.9+1624.95+1547.18+1623.65+1554.59+1620.71C1562.01+1617.76+1569.63+1614.11+1577.46+1609.76C1585.29+1605.4+1593.19+1602.05+1601.17+1599.7C1609.15+1597.34+1617.29+1596.93+1625.58+1598.45C1633.87+1599.98+1642.18+1605.08+1650.52+1613.77C1656.58+1620.08+1660.77+1626.81+1663.07+1633.95C1665.38+1641.1+1666.13+1648.27+1665.34+1655.48C1664.55+1662.69+1662.34+1669.67+1658.72+1676.44C1655.1+1683.2+1650.46+1689.3+1644.8+1694.73C1635.59+1703.57+1625.56+1710.11+1614.7+1714.33C1603.84+1718.56+1591.98+1719.51+1579.13+1717.19L1583.61+1696.96Z" opacity="1" fill="#0000ff"/>
<path d="M981.702+553.041L857.814+767.613L582.815+767.613L720.314+1005.77L582.815+1243.92L857.814+1243.92L981.702+1458.49L1105.59+1243.92L1380.59+1243.92L1243.09+1005.77L1380.59+767.613L1105.59+767.613L981.702+553.041ZM981.702+687.766L1027.78+767.613L935.58+767.613C949.493+743.518+974.431+700.36+981.702+687.766ZM699.464+834.976L818.931+834.976L759.197+938.404C739.279+903.908+708.882+851.288+699.464+834.976ZM896.697+834.976L1066.71+834.976L1165.28+1005.77L1066.71+1176.56L896.697+1176.56C859.272+1111.74+837.257+1073.61+798.08+1005.77C837.257+937.92+859.272+899.789+896.697+834.976ZM1144.47+834.976L1263.9+834.976L1204.21+938.404L1144.47+834.976ZM759.197+1073.13L818.931+1176.56L699.464+1176.56C708.882+1160.25+739.279+1107.63+759.197+1073.13ZM1204.21+1073.13L1263.9+1176.56L1144.47+1176.56L1204.21+1073.13ZM935.58+1243.92L1027.78+1243.92L981.702+1323.77C974.431+1311.17+949.493+1268.02+935.58+1243.92Z" opacity="1" fill="#0000ff"/>
</g>
</g>
</svg>
