<?xml version="1.0" encoding="UTF-8" standalone="no"?>
<svg
   id="Layer_1"
   data-name="Layer 1"
   viewBox="0 0 648.88 221"
   version="1.1"
   sodipodi:docname="hulu-green-borderless.svg"
   width="648.88"
   height="221"
   inkscape:version="1.3.2 (091e20e, 2023-11-25)"
   xmlns:inkscape="http://www.inkscape.org/namespaces/inkscape"
   xmlns:sodipodi="http://sodipodi.sourceforge.net/DTD/sodipodi-0.dtd"
   xmlns="http://www.w3.org/2000/svg"
   xmlns:svg="http://www.w3.org/2000/svg">
  <sodipodi:namedview
     id="namedview6"
     pagecolor="#ffffff"
     bordercolor="#000000"
     borderopacity="0.25"
     inkscape:showpageshadow="2"
     inkscape:pageopacity="0.0"
     inkscape:pagecheckerboard="0"
     inkscape:deskcolor="#d1d1d1"
     inkscape:zoom="0.865"
     inkscape:cx="324.27746"
     inkscape:cy="295.37572"
     inkscape:window-width="1392"
     inkscape:window-height="1212"
     inkscape:window-x="581"
     inkscape:window-y="293"
     inkscape:window-maximized="0"
     inkscape:current-layer="Layer_1" />
  <defs
     id="defs1">
    <style
       id="style1">.cls-1{fill:#3eed7c;}</style>
  </defs>
  <path
     class="cls-1"
     d="m 65.7,182.17 q 0,38.82 -38.83,38.83 H 0 v -35.84 h 11.94 q 14.94,0 14.93,-14.93 L 26.99,50.77 H 65.7 Z M 26.87,0 H 65.7 V 38.83 H 26.87 Z"
     id="path1" />
  <path
     class="cls-1"
     d="m 87.44,86.61 q 0,-35.83 38.82,-35.84 h 47.78 q 38.82,0 38.83,35.84 v 11.94 q 0,26.88 -26.88,26.88 h -59.74 v 9 l 83.62,-0.12 v 36 h -83.62 q -38.82,0 -38.82,-38.82 z m 77.63,14.89 q 9.09,0 9,-9 v -2.87 q 0,-9.07 -8.84,-9.07 l -30,-0.12 q -9,0.12 -9,9.08 v 3 q 0,9 9,9 z"
     id="path2" />
  <path
     class="cls-1"
     d="m 462.9,0 h 38.82 l 0.12,170.23 h -38.82 z"
     id="path3" />
  <path
     class="cls-1"
     d="m 648.88,47.85 v 84.58 q 0,40.73 -38.82,40.72 h -47.78 q -38.82,0 -38.82,-40.72 V 47.85 h 38.82 v 75.18 q 0,15.68 14.93,15.67 h 14.93 q 14.94,0 14.93,-15.67 v -75.3 z"
     id="path4" />
  <path
     class="cls-1"
     d="m 316.03,47.85 v 79.91 q 0,14.19 -14.19,14.19 h -14.19 q -14.19,0 -14.19,-14.19 V 47.85 h -36.87 v 88.42 q 0,36.88 36.87,36.88 h 45.4 a 49.2,49.2 0 0 0 17.28,-2.72 q 19.4,-7.18 19.6,-33.54 c 0,-0.21 0,-0.41 0,-0.62 V 47.85 Z"
     id="path5" />
  <path
     class="cls-1"
     d="m 396,47.85 v 79.91 q 0,14.19 -14.19,14.19 h -14.2 q -8.45,0 -11.87,-5.06 -2.3,-3.39 -2.3,-9.13 V 47.85 h -36.89 v 88.42 q 0,26.88 19.59,34.16 a 49.38,49.38 0 0 0 17.3,2.72 h 45.39 q 36.89,0 36.89,-36.88 V 47.85 Z"
     id="path6" />
</svg>
