<svg id="Layer_1" data-name="Layer 1" xmlns="http://www.w3.org/2000/svg" viewBox="0 0 1000 1000"><defs><style>.cls-1{fill:#3eed7c;}</style></defs><path class="cls-1" d="M241.26,571.67q0,38.82-38.83,38.83H175.56V574.66H187.5q14.94,0,14.93-14.93l.12-119.46h38.71ZM202.43,389.5h38.83v38.83H202.43Z"/><path class="cls-1" d="M263,476.11q0-35.83,38.82-35.84h47.78q38.82,0,38.83,35.84v11.94q0,26.88-26.88,26.88H301.81v9l83.62-.12v36H301.81q-38.82,0-38.82-38.82ZM340.63,491q9.09,0,9-9v-2.87q0-9.07-8.84-9.07l-30-.12q-9,.12-9,9.08v3q0,9,9,9Z"/><path class="cls-1" d="M638.46,389.5h38.82l.12,170.23H638.58Z"/><path class="cls-1" d="M824.44,437.35v84.58q0,40.73-38.82,40.72H737.84q-38.82,0-38.82-40.72V437.35h38.82v75.18q0,15.68,14.93,15.67H767.7q14.94,0,14.93-15.67v-75.3Z"/><path class="cls-1" d="M491.59,437.35v79.91q0,14.19-14.19,14.19H463.21q-14.19,0-14.19-14.19V437.35H412.15v88.42q0,36.88,36.87,36.88h45.4a49.2,49.2,0,0,0,17.28-2.72q19.4-7.18,19.6-33.54c0-.21,0-.41,0-.62V437.35Z"/><path class="cls-1" d="M571.56,437.35v79.91q0,14.19-14.19,14.19h-14.2q-8.45,0-11.87-5.06Q529,523,529,517.26V437.35H492.11v88.42q0,26.88,19.59,34.16A49.38,49.38,0,0,0,529,562.65h45.39q36.89,0,36.89-36.88V437.35Z"/></svg>