<?xml version="1.0" encoding="UTF-8" standalone="no"?>
<svg
   id="Layer_1"
   data-name="Layer 1"
   viewBox="0 0 1000 1000"
   version="1.1"
   sodipodi:docname="khazarr-orange.svg"
   inkscape:version="1.3.2 (091e20e, 2023-11-25)"
   xmlns:inkscape="http://www.inkscape.org/namespaces/inkscape"
   xmlns:sodipodi="http://sodipodi.sourceforge.net/DTD/sodipodi-0.dtd"
   xmlns="http://www.w3.org/2000/svg"
   xmlns:svg="http://www.w3.org/2000/svg">
  <sodipodi:namedview
     id="namedview7"
     pagecolor="#ffffff"
     bordercolor="#000000"
     borderopacity="0.25"
     inkscape:showpageshadow="2"
     inkscape:pageopacity="0.0"
     inkscape:pagecheckerboard="0"
     inkscape:deskcolor="#d1d1d1"
     inkscape:zoom="0.865"
     inkscape:cx="500"
     inkscape:cy="500"
     inkscape:window-width="1392"
     inkscape:window-height="1212"
     inkscape:window-x="2075"
     inkscape:window-y="677"
     inkscape:window-maximized="0"
     inkscape:current-layer="Layer_1" />
  <defs
     id="defs1">
    <style
       id="style1">.cls-1{fill:#e5a00d;}</style>
  </defs>
  <rect
     class="cls-1"
     x="199.66"
     y="438.88"
     width="24.38"
     height="122.24"
     id="rect1" />
  <polygon
     class="cls-1"
     points="259.91 497.03 301.87 454.81 317.71 438.88 301.87 438.88 288.03 438.88 229.19 497.2 292 561.04 301.87 561.04 324.1 561.04 301.87 538.88 259.91 497.03"
     id="polygon1" />
  <polygon
     class="cls-1"
     points="401.95 505.71 401.95 438.88 377.8 438.88 377.8 485.62 326.03 485.62 326.03 439.1 301.87 463.4 301.87 530.33 326.03 554.42 326.03 505.72 377.8 505.72 377.8 558.66 401.95 505.71"
     id="polygon2" />
  <polygon
     class="cls-1"
     points="588.73 438.88 495.89 438.88 495.89 459.58 579.41 459.58 588.73 438.88"
     id="polygon3" />
  <polygon
     class="cls-1"
     points="532.35 532.18 568.19 467.75 540.75 467.74 504.91 532.18 532.35 532.18"
     id="polygon4" />
  <path
     class="cls-1"
     d="M731.89,499.69c.09-.08.2-.16.29-.25a26.39,26.39,0,0,0,7.8-12.25,44.58,44.58,0,0,0,1.87-13.46,41.42,41.42,0,0,0-2.21-14.15c-.23-.61-.47-1.22-.73-1.81A27.18,27.18,0,0,0,730.63,447a33.49,33.49,0,0,0-7.25-4.27,39.74,39.74,0,0,0-5.26-1.86,59.09,59.09,0,0,0-15.79-2H648.71l9.44,20.7h42.11q8.28,0,12.86,3.2t4.57,10.78a18.26,18.26,0,0,1-1.29,7.59,9.18,9.18,0,0,1-3.63,4.14,12.64,12.64,0,0,1-5.52,1.64c-2.13.18-4.46.26-7,.26H672.34L708.41,561h26.71l-29-53.14Q722.27,507.9,731.89,499.69Z"
     id="path4" />
  <path
     class="cls-1"
     d="M764.62,507.9q16.39,0,26.06-8.46t9.66-25.71a39.45,39.45,0,0,0-2.93-16A27.29,27.29,0,0,0,789.12,447a35.85,35.85,0,0,0-12.51-6.13,59.07,59.07,0,0,0-15.78-2H729.27a38.82,38.82,0,0,1,5.07,3.32,33.36,33.36,0,0,1,10.11,13.13,35.07,35.07,0,0,1,1.56,4.25h12.75q8.28,0,12.85,3.2t4.57,10.78a18.26,18.26,0,0,1-1.29,7.59,9.16,9.16,0,0,1-3.62,4.14,12.73,12.73,0,0,1-5.53,1.64c-2.12.18-4.45.26-7,.26H746.28A33,33,0,0,1,736.17,504c-.25.22-.52.42-.78.64L765.26,561h27.09Z"
     id="path5" />
  <path
     class="cls-1"
     d="M450.46,440.31a1.64,1.64,0,0,0-1.49-.95h-9a1.64,1.64,0,0,0-1.49.95L402,520.3,383.37,561h25.36l35.72-78.68L480.17,561h25.36l-9.44-20.7Z"
     id="path6"
     style="fill:#ffffff" />
  <polygon
     class="cls-1"
     points="502.74 540.34 512.19 561.04 568.96 561.04 578.4 540.34 502.74 540.34"
     id="polygon6" />
  <path
     class="cls-1"
     d="M661.32,481.14l-7.06-15.5-2.77-6.06-8.79-19.27a1.62,1.62,0,0,0-1.48-.95h-9.05a1.62,1.62,0,0,0-1.48.95l-4.59,10.05-6.05,13.28-37.19,81.52L575.61,561H601l35.72-78.68L672.41,561h25.37l-31.42-68.88Z"
     id="path7"
     style="fill:#ffffff" />
</svg>
