<?xml version="1.0" encoding="UTF-8" standalone="no"?>
<svg
   id="Layer_1"
   data-name="Layer 1"
   viewBox="0 0 600.69391 122.25245"
   version="1.1"
   sodipodi:docname="khazarr-orange-borderless.svg"
   inkscape:version="1.3.2 (091e20e, 2023-11-25)"
   width="600.69391"
   height="122.25245"
   xmlns:inkscape="http://www.inkscape.org/namespaces/inkscape"
   xmlns:sodipodi="http://sodipodi.sourceforge.net/DTD/sodipodi-0.dtd"
   xmlns="http://www.w3.org/2000/svg"
   xmlns:svg="http://www.w3.org/2000/svg">
  <sodipodi:namedview
     id="namedview7"
     pagecolor="#ffffff"
     bordercolor="#000000"
     borderopacity="0.25"
     inkscape:showpageshadow="2"
     inkscape:pageopacity="0.0"
     inkscape:pagecheckerboard="0"
     inkscape:deskcolor="#d1d1d1"
     inkscape:zoom="0.865"
     inkscape:cx="300"
     inkscape:cy="60.693642"
     inkscape:window-width="1392"
     inkscape:window-height="1212"
     inkscape:window-x="2075"
     inkscape:window-y="677"
     inkscape:window-maximized="0"
     inkscape:current-layer="Layer_1" />
  <defs
     id="defs1">
    <style
       id="style1">.cls-1{fill:#e5a00d;}</style>
  </defs>
  <rect
     class="cls-1"
     x="0"
     y="0.012449455"
     width="24.379999"
     height="122.24"
     id="rect1" />
  <polygon
     class="cls-1"
     points="317.71,438.88 301.87,438.88 288.03,438.88 229.19,497.2 292,561.04 301.87,561.04 324.1,561.04 301.87,538.88 259.91,497.03 301.87,454.81 "
     id="polygon1"
     transform="translate(-199.66,-438.86756)" />
  <polygon
     class="cls-1"
     points="377.8,438.88 377.8,485.62 326.03,485.62 326.03,439.1 301.87,463.4 301.87,530.33 326.03,554.42 326.03,505.72 377.8,505.72 377.8,558.66 401.95,505.71 401.95,438.88 "
     id="polygon2"
     transform="translate(-199.66,-438.86756)" />
  <polygon
     class="cls-1"
     points="495.89,459.58 579.41,459.58 588.73,438.88 495.89,438.88 "
     id="polygon3"
     transform="translate(-199.66,-438.86756)" />
  <polygon
     class="cls-1"
     points="540.75,467.74 504.91,532.18 532.35,532.18 568.19,467.75 "
     id="polygon4"
     transform="translate(-199.66,-438.86756)" />
  <path
     class="cls-1"
     d="m 532.23,60.822445 c 0.09,-0.08 0.2,-0.16 0.29,-0.25 a 26.39,26.39 0 0 0 7.8,-12.25 44.58,44.58 0 0 0 1.87,-13.46 41.42,41.42 0 0 0 -2.21,-14.15 c -0.23,-0.61 -0.47,-1.22 -0.73,-1.81 a 27.18,27.18 0 0 0 -8.28,-10.7700004 33.49,33.49 0 0 0 -7.25,-4.27 39.74,39.74 0 0 0 -5.26,-1.86 59.09,59.09 0 0 0 -15.79,-2.00000003 h -53.62 l 9.44,20.70000043 h 42.11 q 8.28,0 12.86,3.2 4.58,3.2 4.57,10.78 a 18.26,18.26 0 0 1 -1.29,7.59 9.18,9.18 0 0 1 -3.63,4.14 12.64,12.64 0 0 1 -5.52,1.64 c -2.13,0.18 -4.46,0.26 -7,0.26 h -27.91 l 36.07,73.819995 h 26.71 l -29,-53.139995 q 16.15,0.04 25.77,-8.17 z"
     id="path4" />
  <path
     class="cls-1"
     d="m 564.96,69.032445 q 16.39,0 26.06,-8.46 9.67,-8.46 9.66,-25.71 a 39.45,39.45 0 0 0 -2.93,-16 27.29,27.29 0 0 0 -8.29,-10.7300004 35.85,35.85 0 0 0 -12.51,-6.13 59.07,59.07 0 0 0 -15.78,-2.00000003 h -31.56 a 38.82,38.82 0 0 1 5.07,3.32000003 33.36,33.36 0 0 1 10.11,13.1300004 35.07,35.07 0 0 1 1.56,4.25 h 12.75 q 8.28,0 12.85,3.2 4.57,3.2 4.57,10.78 a 18.26,18.26 0 0 1 -1.29,7.59 9.16,9.16 0 0 1 -3.62,4.14 12.73,12.73 0 0 1 -5.53,1.64 c -2.12,0.18 -4.45,0.26 -7,0.26 h -12.46 a 33,33 0 0 1 -10.11,16.82 c -0.25,0.22 -0.52,0.42 -0.78,0.64 l 29.87,56.359995 h 27.09 z"
     id="path5" />
  <path
     class="cls-1"
     d="m 250.8,1.4424446 a 1.64,1.64 0 0 0 -1.49,-0.95000003 h -9 A 1.64,1.64 0 0 0 238.82,1.4424446 L 202.34,81.432445 183.71,122.13244 h 25.36 l 35.72,-78.679995 35.72,78.679995 h 25.36 l -9.44,-20.7 z"
     id="path6"
     style="fill:#ffffff" />
  <polygon
     class="cls-1"
     points="568.96,561.04 578.4,540.34 502.74,540.34 512.19,561.04 "
     id="polygon6"
     transform="translate(-199.66,-438.86756)" />
  <path
     class="cls-1"
     d="m 461.66,42.272445 -7.06,-15.5 -2.77,-6.06 -8.79,-19.2700004 a 1.62,1.62 0 0 0 -1.48,-0.95000003 h -9.05 a 1.62,1.62 0 0 0 -1.48,0.95000003 l -4.59,10.0500004 -6.05,13.28 -37.19,81.519995 -7.25,15.84 h 25.39 l 35.72,-78.679995 35.69,78.679995 h 25.37 L 466.7,53.252445 Z"
     id="path7"
     style="fill:#ffffff" />
</svg>
