<?xml version="1.0" encoding="UTF-8" standalone="no"?>
<svg
   id="Layer_1"
   data-name="Layer 1"
   viewBox="0 0 252.16 266.97348"
   version="1.1"
   sodipodi:docname="khazarr-star-borderless.svg"
   width="252.16"
   height="266.97348"
   inkscape:version="1.3.2 (091e20e, 2023-11-25)"
   xmlns:inkscape="http://www.inkscape.org/namespaces/inkscape"
   xmlns:sodipodi="http://sodipodi.sourceforge.net/DTD/sodipodi-0.dtd"
   xmlns="http://www.w3.org/2000/svg"
   xmlns:svg="http://www.w3.org/2000/svg">
  <sodipodi:namedview
     id="namedview11"
     pagecolor="#ffffff"
     bordercolor="#000000"
     borderopacity="0.25"
     inkscape:showpageshadow="2"
     inkscape:pageopacity="0.0"
     inkscape:pagecheckerboard="0"
     inkscape:deskcolor="#d1d1d1"
     inkscape:zoom="0.865"
     inkscape:cx="126.5896"
     inkscape:cy="133.52601"
     inkscape:window-width="1392"
     inkscape:window-height="1212"
     inkscape:window-x="0"
     inkscape:window-y="25"
     inkscape:window-maximized="0"
     inkscape:current-layer="Layer_1" />
  <defs
     id="defs1">
    <style
       id="style1">.cls-1{fill:#ffffff;}.cls-2{fill:#e5a00d;}</style>
  </defs>
  <path
     class="cls-1"
     d="m 175.88,133.02854 -75.43,43.08 c 0.07,-1.46 0.15,-2.49 0.16,-3.52 0,-3.89 0,-7.77 0.09,-11.66 q 0.18,-12.84 0.42,-25.66 l 0.39,-21.52 c 0.13,-6.78 0.25,-13.56 0.4,-20.329998 a 16.07,16.07 0 0 1 0.25,-1.85 c 24.65,13.819998 49.04,27.529998 73.72,41.459998 z"
     id="path1" />
  <path
     class="cls-2"
     d="m 137.78,19.538542 a 29.36,29.36 0 0 1 14.18,-5.15 19.48,19.48 0 0 1 14,4.49 32.45,32.45 0 0 1 7.62,9.56 q 2.1,3.63 4.18,7.26 l 2.55,4.41 q 7.86,13.61 15.75,27.21 l 2.55,4.4 3.55,6.14 q 5.63,9.72 11.26,19.44 c -1.82,3.169998 -3.63,6.359998 -5.42,9.539998 l -10.5,18.72 q -7.42,-12.57 -14.78,-25.14 -8.31,-14.189998 -16.59,-28.409998 c -0.87,-1.47 -1.73,-2.95 -2.59,-4.42 q -7.89,-13.55 -15.8,-27.09 l -2.11,-3.62 c -0.16,-0.26 -0.31,-0.52 -0.46,-0.78 v 0 c -2.62,-4.48 -5.27,-9 -7.9,-13.43 -0.33,-0.56 -0.6,-1.15 -1,-1.87 a 16.63,16.63 0 0 1 1.51,-1.26 z"
     id="path2" />
  <path
     class="cls-2"
     d="m 198.16,62.168542 -12.81,-22.13 18.88,-0.24 a 51.53,51.53 0 0 1 26.25,6.35 c 12.71,7.16 19.7,18.12 21.38,32.59 a 45.73,45.73 0 0 1 -3.52,23.319998 62.82,62.82 0 0 1 -3.48,6.78 q -4.92,8.49 -9.86,17 l -2.57,4.42 q -7,12.08 -14,24.15 l -2,3.46 v 0 q -1.29,2.21 -2.56,4.41 -9.16,15.84 -18.31,31.7 l -31.53,0.33 q 5.26,-9.36 10.51,-18.72 11.54,-20.54 23,-41.08 l 2.51,-4.49 q 5.88,-10.5 11.78,-21 2,-3.64 4.11,-7.27 l 2.55,-4.459998 q 3.32,-5.79 6.64,-11.56 a 21.12,21.12 0 0 0 2.74,-7.59 8.39,8.39 0 0 0 -4.55,-9 19.16,19.16 0 0 0 -9,-2 c -4.39,0 -8.78,0.07 -13.17,0.13 z"
     id="path3" />
  <path
     class="cls-2"
     d="m 155.31,230.35854 19.4,-0.21 c -3.13,5.46 -6.28,10.9 -9.53,16.29 -6.48,10.77 -16.21,17.19 -28.5,19.66 a 41.71,41.71 0 0 1 -25.75,-2.86 c -0.59,-0.27 -1.19,-0.53 -1.76,-0.85 -0.2,-0.1 -0.3,-0.35 -0.59,-0.72 a 22.73,22.73 0 0 1 2.19,-0.62 35.26,35.26 0 0 0 23.7,-15.4 c 3,-4.31 5.58,-8.88 8.17,-13.45 0.33,-0.57 0.65,-1.15 1,-1.72 z"
     id="path4" />
  <path
     class="cls-2"
     d="m 53.93,204.67854 12.88,22.26 c -6.29,0.08 -12.58,0.17 -18.88,0.23 a 51.42,51.42 0 0 1 -26.25,-6.34 c -12.7,-7.16 -19.7,-18.12 -21.38,-32.59 a 45.63,45.63 0 0 1 3.53,-23.32 59.4,59.4 0 0 1 3.48,-6.78 q 4.92,-8.49 9.86,-17 l 2.57,-4.42 q 7,-12.06 14,-24.15 l 2,-3.46 v 0 l 2.55,-4.41 v 0 Q 47.46,88.858542 56.61,73.008542 c 11.42,-0.13 21.69,-0.24 31.52,-0.33 q -5.25,9.35 -10.51,18.72 l -23,41.079998 -2.54,4.5 q -5.88,10.5 -11.77,21 -2.06,3.64 -4.12,7.27 l -2.55,4.47 -6.56,11.53 a 21.24,21.24 0 0 0 -2.74,7.59 8.4,8.4 0 0 0 4.55,9 19,19 0 0 0 9.06,2 c 4.38,0 8.78,-0.06 13.16,-0.12 z"
     id="path5" />
  <path
     class="cls-2"
     d="m 252.16,170.86854 v 7.88 c -0.63,2.86 -1.07,5.78 -1.91,8.59 a 44.32,44.32 0 0 1 -14.15,22 c -0.86,0.71 -1.83,1.3 -3.2,2.26 0.17,-1.13 0.21,-1.75 0.36,-2.33 a 40.06,40.06 0 0 0 0,-19.73 c -1.27,-5.06 -3.88,-9.55 -6.49,-14 l -7.82,-13.31 3.27,-5.65 q 6.36,-11 12.75,-21.94 c 0.05,0.09 0.1,0.19 0.16,0.28 3.94,6.81 7.82,13.66 11.84,20.43 a 37.15,37.15 0 0 1 4.75,13.87 13.94,13.94 0 0 0 0.44,1.65 z"
     id="path6" />
  <path
     class="cls-2"
     d="m 28.74,66.738542 c -0.45,-6.05 0.51,-11.78 4,-16.87 3.49,-5.09 8.52,-7.32 14.38,-8 2.93,-0.32 5.9,-0.36 8.85,-0.4 l 13.74,-0.15 5.15,-0.06 31.12,-0.32 5.14,-0.06 12.32,-0.12 19.16,-0.22 q 6.48,10.95 12.82,21.95 l 3,5.14 -62.63,0.55 h -4.15 -1 q -15.74,0.15 -31.45,0.33 c -1.73,0 -3.45,0 -5.17,0.06 l -8.7,0.1 c -4.43,0 -8.86,0.2 -13.29,0.29 h -2.75 a 16.87,16.87 0 0 1 -0.54,-2.22 z"
     id="path7" />
  <path
     class="cls-2"
     d="m 97.14,36.618542 -19.68,0.2 c 3.12,-5.45 6.28,-10.9 9.52,-16.28 6.49,-10.7700005 16.21,-17.2000005 28.5,-19.66000048 a 41.6,41.6 0 0 1 25.74,2.85999998 c 0.61,0.27 1.2,0.53 1.78,0.85 0.18,0.1 0.29,0.35 0.58,0.72 a 22.73,22.73 0 0 1 -2.19,0.62 35.24,35.24 0 0 0 -23.69,15.3900005 c -3,4.32 -5.6,8.89 -8.18,13.45 l -1,1.73 z"
     id="path8" />
  <path
     class="cls-2"
     d="m 223.42,200.23854 c 0.45,6 -0.51,11.78 -4,16.87 -3.49,5.09 -8.52,7.32 -14.38,8 -2.93,0.32 -5.9,0.36 -8.85,0.4 l -13.74,0.15 -5.14,0.05 -31.13,0.33 -5.13,0.05 -12.32,0.13 -19.16,0.22 v 0 l -12.84,-21.95 -3,-5.13 62.62,-0.55 h 4.15 1 q 15.72,-0.13 31.45,-0.32 l 5.15,-0.06 8.71,-0.1 c 4.43,0 8.86,-0.2 13.29,-0.29 0.89,0 1.78,0 2.8,0 a 16.36,16.36 0 0 1 0.52,2.2 z"
     id="path9" />
  <path
     class="cls-2"
     d="m 0.42,97.738542 a 13.45,13.45 0 0 0 -0.42,-1.63 v -7.88 c 0.63,-2.86 1.07,-5.79 1.91,-8.59 a 44.32,44.32 0 0 1 14.15,-22 c 0.86,-0.72 1.84,-1.31 3.2,-2.27 -0.17,1.13 -0.2,1.74 -0.35,2.33 a 39.9,39.9 0 0 0 0,19.72 c 1.28,5.07 3.88,9.56 6.5,14 l 7.81,13.309998 -3.27,5.65 q -6.36,11 -12.75,21.94 l -0.16,-0.28 c -3.94,-6.81 -7.82,-13.66 -11.83,-20.44 A 36.88,36.88 0 0 1 0.42,97.738542 Z"
     id="path10" />
  <path
     class="cls-2"
     d="m 114.38,247.48854 a 29.36,29.36 0 0 1 -14.18,5.15 19.48,19.48 0 0 1 -13.95,-4.49 32.45,32.45 0 0 1 -7.62,-9.56 q -2.08,-3.63 -4.18,-7.26 v 0 q -1.26,-2.2 -2.54,-4.41 -7.86,-13.61 -15.75,-27.21 l -2.55,-4.4 -3.53,-6.19 -11.25,-19.44 c 1.81,-3.18 3.63,-6.36 5.41,-9.54 q 5.26,-9.36 10.51,-18.72 7.37,12.57 14.72,25.14 8.31,14.2 16.6,28.41 l 2.58,4.42 q 7.9,13.54 15.8,27.08 c 0.7,1.21 1.41,2.42 2.12,3.63 l 0.45,0.78 v 0 c 2.61,4.48 5.27,9 7.89,13.43 0.33,0.56 0.6,1.15 1,1.87 a 15.33,15.33 0 0 1 -1.53,1.31 z"
     id="path11" />
</svg>
