<svg id="Layer_1" data-name="Layer 1" xmlns="http://www.w3.org/2000/svg" viewBox="0 0 1000 1000"><defs><style>.cls-1{fill:#ffffff;}.cls-2{fill:#e5a00d;}</style></defs><path class="cls-1" d="M549.8,499.54l-75.43,43.08c.07-1.46.15-2.49.16-3.52,0-3.89,0-7.77.09-11.66q.18-12.84.42-25.66l.39-21.52c.13-6.78.25-13.56.4-20.33a16.07,16.07,0,0,1,.25-1.85C500.73,471.9,525.12,485.61,549.8,499.54Z"/><path class="cls-2" d="M511.7,386.05a29.36,29.36,0,0,1,14.18-5.15,19.48,19.48,0,0,1,14,4.49,32.45,32.45,0,0,1,7.62,9.56q2.1,3.63,4.18,7.26l2.55,4.41q7.86,13.61,15.75,27.21l2.55,4.4,3.55,6.14q5.63,9.72,11.26,19.44c-1.82,3.17-3.63,6.36-5.42,9.54l-10.5,18.72Q564,479.5,556.64,466.93q-8.31-14.19-16.59-28.41c-.87-1.47-1.73-2.95-2.59-4.42q-7.89-13.55-15.8-27.09l-2.11-3.62c-.16-.26-.31-.52-.46-.78h0c-2.62-4.48-5.27-9-7.9-13.43-.33-.56-.6-1.15-1-1.87A16.63,16.63,0,0,1,511.7,386.05Z"/><path class="cls-2" d="M572.08,428.68l-12.81-22.13,18.88-.24a51.53,51.53,0,0,1,26.25,6.35c12.71,7.16,19.7,18.12,21.38,32.59a45.73,45.73,0,0,1-3.52,23.32,62.82,62.82,0,0,1-3.48,6.78q-4.92,8.49-9.86,17l-2.57,4.42q-7,12.08-14,24.15l-2,3.46h0q-1.29,2.21-2.56,4.41-9.16,15.84-18.31,31.7l-31.53.33q5.26-9.36,10.51-18.72,11.54-20.54,23-41.08l2.51-4.49q5.88-10.5,11.78-21,2-3.64,4.11-7.27l2.55-4.46q3.32-5.79,6.64-11.56a21.12,21.12,0,0,0,2.74-7.59,8.39,8.39,0,0,0-4.55-9,19.16,19.16,0,0,0-9-2c-4.39,0-8.78.07-13.17.13Z"/><path class="cls-2" d="M529.23,596.87l19.4-.21c-3.13,5.46-6.28,10.9-9.53,16.29-6.48,10.77-16.21,17.19-28.5,19.66a41.71,41.71,0,0,1-25.75-2.86c-.59-.27-1.19-.53-1.76-.85-.2-.1-.3-.35-.59-.72a22.73,22.73,0,0,1,2.19-.62,35.26,35.26,0,0,0,23.7-15.4c3-4.31,5.58-8.88,8.17-13.45.33-.57.65-1.15,1-1.72Z"/><path class="cls-2" d="M427.85,571.19l12.88,22.26c-6.29.08-12.58.17-18.88.23a51.42,51.42,0,0,1-26.25-6.34c-12.7-7.16-19.7-18.12-21.38-32.59a45.63,45.63,0,0,1,3.53-23.32,59.4,59.4,0,0,1,3.48-6.78q4.92-8.49,9.86-17l2.57-4.42q7-12.06,14-24.15l2-3.46h0l2.55-4.41h0q9.17-15.84,18.32-31.69c11.42-.13,21.69-.24,31.52-.33q-5.25,9.35-10.51,18.72l-23,41.08L426,503.49q-5.88,10.5-11.77,21-2.06,3.64-4.12,7.27l-2.55,4.47L401,547.76a21.24,21.24,0,0,0-2.74,7.59,8.4,8.4,0,0,0,4.55,9,19,19,0,0,0,9.06,2c4.38,0,8.78-.06,13.16-.12Z"/><path class="cls-2" d="M626.08,537.38v7.88c-.63,2.86-1.07,5.78-1.91,8.59a44.32,44.32,0,0,1-14.15,22c-.86.71-1.83,1.3-3.2,2.26.17-1.13.21-1.75.36-2.33a40.06,40.06,0,0,0,0-19.73c-1.27-5.06-3.88-9.55-6.49-14l-7.82-13.31,3.27-5.65q6.36-11,12.75-21.94c.05.09.1.19.16.28,3.94,6.81,7.82,13.66,11.84,20.43a37.15,37.15,0,0,1,4.75,13.87A13.94,13.94,0,0,0,626.08,537.38Z"/><path class="cls-2" d="M402.66,433.25c-.45-6.05.51-11.78,4-16.87s8.52-7.32,14.38-8c2.93-.32,5.9-.36,8.85-.4l13.74-.15,5.15-.06,31.12-.32,5.14-.06,12.32-.12,19.16-.22Q523,418,529.34,429l3,5.14-62.63.55-4.15,0h-1q-15.74.15-31.45.33c-1.73,0-3.45,0-5.17.06l-8.7.1c-4.43,0-8.86.2-13.29.29H403.2A16.87,16.87,0,0,1,402.66,433.25Z"/><path class="cls-2" d="M471.06,403.13l-19.68.2c3.12-5.45,6.28-10.9,9.52-16.28,6.49-10.77,16.21-17.2,28.5-19.66a41.6,41.6,0,0,1,25.74,2.86c.61.27,1.2.53,1.78.85.18.1.29.35.58.72a22.73,22.73,0,0,1-2.19.62,35.24,35.24,0,0,0-23.69,15.39c-3,4.32-5.6,8.89-8.18,13.45l-1,1.73Z"/><path class="cls-2" d="M597.34,566.75c.45,6-.51,11.78-4,16.87s-8.52,7.32-14.38,8c-2.93.32-5.9.36-8.85.4l-13.74.15-5.14.05-31.13.33-5.13.05-12.32.13-19.16.22h0L470.65,571l-3-5.13,62.62-.55,4.15,0h1q15.72-.13,31.45-.32l5.15-.06,8.71-.1c4.43,0,8.86-.2,13.29-.29.89,0,1.78,0,2.8,0A16.36,16.36,0,0,1,597.34,566.75Z"/><path class="cls-2" d="M374.34,464.25a13.45,13.45,0,0,0-.42-1.63v-7.88c.63-2.86,1.07-5.79,1.91-8.59a44.32,44.32,0,0,1,14.15-22c.86-.72,1.84-1.31,3.2-2.27-.17,1.13-.2,1.74-.35,2.33a39.9,39.9,0,0,0,0,19.72c1.28,5.07,3.88,9.56,6.5,14l7.81,13.31-3.27,5.65q-6.36,11-12.75,21.94l-.16-.28c-3.94-6.81-7.82-13.66-11.83-20.44A36.88,36.88,0,0,1,374.34,464.25Z"/><path class="cls-2" d="M488.3,614a29.36,29.36,0,0,1-14.18,5.15,19.48,19.48,0,0,1-13.95-4.49,32.45,32.45,0,0,1-7.62-9.56q-2.08-3.63-4.18-7.26h0q-1.26-2.2-2.54-4.41-7.86-13.61-15.75-27.21l-2.55-4.4L424,555.63l-11.25-19.44c1.81-3.18,3.63-6.36,5.41-9.54q5.26-9.36,10.51-18.72,7.37,12.57,14.72,25.14,8.31,14.2,16.6,28.41l2.58,4.42q7.9,13.54,15.8,27.08c.7,1.21,1.41,2.42,2.12,3.63l.45.78h0c2.61,4.48,5.27,9,7.89,13.43.33.56.6,1.15,1,1.87A15.33,15.33,0,0,1,488.3,614Z"/></svg>
